<?xml version="1.0" standalone="no"?>
<!DOCTYPE svg PUBLIC "-//W3C//DTD SVG 20010904//EN"
 "http://www.w3.org/TR/2001/REC-SVG-20010904/DTD/svg10.dtd">
<svg version="1.0" xmlns="http://www.w3.org/2000/svg"
 width="50.000000pt" height="50.000000pt" viewBox="0 0 51.000000 50.000000"
 preserveAspectRatio="xMidYMid meet">

<g transform="translate(0.000000,50.000000) scale(0.100000,-0.100000)"
fill="#E7235B" stroke="none">
<path d="M116 444 c-18 -18 -21 -34 -6 -34 6 0 10 7 10 15 0 13 21 15 130 15
109 0 130 -2 130 -15 0 -8 5 -15 10 -15 15 0 12 16 -6 34 -23 23 -245 23 -268
0z"/>
<path d="M86 374 c-18 -18 -21 -34 -6 -34 6 0 10 7 10 15 0 13 24 15 160 15
136 0 160 -2 160 -15 0 -8 5 -15 10 -15 15 0 12 16 -6 34 -23 23 -305 23 -328
0z"/>
<path d="M56 304 c-23 -23 -23 -225 0 -248 23 -24 365 -24 388 0 23 23 23 225
0 248 -23 24 -365 24 -388 0z m384 -124 l0 -120 -190 0 -190 0 0 120 0 120
190 0 190 0 0 -120z"/>
</g>
</svg>
