<?xml version="1.0" standalone="no"?>
<!DOCTYPE svg PUBLIC "-//W3C//DTD SVG 20010904//EN"
 "http://www.w3.org/TR/2001/REC-SVG-20010904/DTD/svg10.dtd">
<svg version="1.0" xmlns="http://www.w3.org/2000/svg"
 width="30.000000pt" height="30.000000pt" viewBox="0 0 30.000000 30.000000"
 preserveAspectRatio="xMidYMid meet">

<g transform="translate(0.000000,30.000000) scale(0.100000,-0.100000)"
fill="#E7235B" stroke="none">
<path d="M208 239 c-14 -8 -18 -24 -18 -74 0 -55 -3 -65 -20 -70 -30 -10 -43
-40 -25 -59 36 -36 65 11 65 103 0 57 1 58 32 67 43 13 51 44 11 44 -15 0 -36
-5 -45 -11z"/>
<path d="M40 230 c0 -6 27 -10 60 -10 33 0 60 4 60 10 0 6 -27 10 -60 10 -33
0 -60 -4 -60 -10z"/>
<path d="M40 180 c0 -6 27 -10 60 -10 33 0 60 4 60 10 0 6 -27 10 -60 10 -33
0 -60 -4 -60 -10z"/>
<path d="M40 130 c0 -6 27 -10 60 -10 33 0 60 4 60 10 0 6 -27 10 -60 10 -33
0 -60 -4 -60 -10z"/>
<path d="M40 80 c0 -5 16 -10 35 -10 19 0 35 5 35 10 0 6 -16 10 -35 10 -19 0
-35 -4 -35 -10z"/>
</g>
</svg>
